<mxfile host="Electron" modified="2023-09-08T06:35:22.343Z" agent="Mozilla/5.0 (X11; Linux x86_64) AppleWebKit/537.36 (KHTML, like Gecko) draw.io/21.2.8 Chrome/112.0.5615.165 Electron/24.2.0 Safari/537.36" etag="Vup8A8Ew0YNgsrP0aR2d" version="21.2.8" type="device">
  <diagram name="Page-1" id="W38x1XGtULFemG_pfs-W">
    <mxGraphModel dx="528" dy="362" grid="1" gridSize="10" guides="1" tooltips="1" connect="1" arrows="1" fold="1" page="1" pageScale="1" pageWidth="850" pageHeight="1100" math="0" shadow="0">
      <root>
        <mxCell id="0" />
        <mxCell id="1" parent="0" />
        <mxCell id="qp9JQkSkVBdRz7zZg5ij-1" value="65C02" style="rounded=0;whiteSpace=wrap;html=1;" vertex="1" parent="1">
          <mxGeometry x="400" y="470" width="120" height="60" as="geometry" />
        </mxCell>
        <mxCell id="qp9JQkSkVBdRz7zZg5ij-2" value="" style="rounded=0;whiteSpace=wrap;html=1;strokeColor=#000000;" vertex="1" parent="1">
          <mxGeometry x="560" y="400" width="410" height="300" as="geometry" />
        </mxCell>
        <mxCell id="qp9JQkSkVBdRz7zZg5ij-3" value="" style="rounded=0;whiteSpace=wrap;html=1;" vertex="1" parent="1">
          <mxGeometry x="560" y="440" width="130" height="120" as="geometry" />
        </mxCell>
        <mxCell id="qp9JQkSkVBdRz7zZg5ij-4" value="Control Registers" style="rounded=0;whiteSpace=wrap;html=1;" vertex="1" parent="1">
          <mxGeometry x="595" y="450" width="60" height="40" as="geometry" />
        </mxCell>
        <mxCell id="qp9JQkSkVBdRz7zZg5ij-8" value="" style="edgeStyle=orthogonalEdgeStyle;rounded=0;orthogonalLoop=1;jettySize=auto;html=1;endArrow=none;endFill=0;strokeColor=#FF0000;" edge="1" parent="1" source="qp9JQkSkVBdRz7zZg5ij-5" target="qp9JQkSkVBdRz7zZg5ij-7">
          <mxGeometry relative="1" as="geometry" />
        </mxCell>
        <mxCell id="qp9JQkSkVBdRz7zZg5ij-5" value="&lt;font style=&quot;font-size: 8px;&quot;&gt;M&lt;/font&gt;" style="whiteSpace=wrap;html=1;aspect=fixed;strokeColor=#FF0000;" vertex="1" parent="1">
          <mxGeometry x="510" y="495" width="10" height="10" as="geometry" />
        </mxCell>
        <mxCell id="qp9JQkSkVBdRz7zZg5ij-10" style="edgeStyle=orthogonalEdgeStyle;rounded=0;orthogonalLoop=1;jettySize=auto;html=1;exitX=1;exitY=0.5;exitDx=0;exitDy=0;entryX=0;entryY=0.5;entryDx=0;entryDy=0;endArrow=none;endFill=0;strokeColor=#FF0000;" edge="1" parent="1" source="qp9JQkSkVBdRz7zZg5ij-7" target="qp9JQkSkVBdRz7zZg5ij-4">
          <mxGeometry relative="1" as="geometry">
            <Array as="points">
              <mxPoint x="580" y="500" />
              <mxPoint x="580" y="470" />
            </Array>
          </mxGeometry>
        </mxCell>
        <mxCell id="qp9JQkSkVBdRz7zZg5ij-11" style="edgeStyle=orthogonalEdgeStyle;rounded=0;orthogonalLoop=1;jettySize=auto;html=1;exitX=1;exitY=0.5;exitDx=0;exitDy=0;entryX=0;entryY=0.5;entryDx=0;entryDy=0;endArrow=none;endFill=0;strokeColor=#FF0000;" edge="1" parent="1" source="qp9JQkSkVBdRz7zZg5ij-7" target="qp9JQkSkVBdRz7zZg5ij-9">
          <mxGeometry relative="1" as="geometry">
            <Array as="points">
              <mxPoint x="580" y="500" />
              <mxPoint x="580" y="530" />
            </Array>
          </mxGeometry>
        </mxCell>
        <mxCell id="qp9JQkSkVBdRz7zZg5ij-7" value="&lt;font color=&quot;#ffffff&quot; style=&quot;font-size: 8px;&quot;&gt;S&lt;/font&gt;" style="whiteSpace=wrap;html=1;aspect=fixed;strokeColor=#FF0000;fillColor=#000000;" vertex="1" parent="1">
          <mxGeometry x="560" y="495" width="10" height="10" as="geometry" />
        </mxCell>
        <mxCell id="qp9JQkSkVBdRz7zZg5ij-41" style="edgeStyle=orthogonalEdgeStyle;rounded=0;orthogonalLoop=1;jettySize=auto;html=1;exitX=1;exitY=0.5;exitDx=0;exitDy=0;entryX=0;entryY=0.5;entryDx=0;entryDy=0;strokeColor=#FF0000;endArrow=none;endFill=0;" edge="1" parent="1" source="qp9JQkSkVBdRz7zZg5ij-9" target="qp9JQkSkVBdRz7zZg5ij-40">
          <mxGeometry relative="1" as="geometry" />
        </mxCell>
        <mxCell id="qp9JQkSkVBdRz7zZg5ij-9" value="MMU" style="rounded=0;whiteSpace=wrap;html=1;" vertex="1" parent="1">
          <mxGeometry x="595" y="510" width="60" height="40" as="geometry" />
        </mxCell>
        <mxCell id="qp9JQkSkVBdRz7zZg5ij-18" value="Boot Rom" style="rounded=0;whiteSpace=wrap;html=1;" vertex="1" parent="1">
          <mxGeometry x="600" y="610" width="120" height="60" as="geometry" />
        </mxCell>
        <mxCell id="qp9JQkSkVBdRz7zZg5ij-33" style="edgeStyle=orthogonalEdgeStyle;rounded=0;orthogonalLoop=1;jettySize=auto;html=1;entryX=0;entryY=0.5;entryDx=0;entryDy=0;endArrow=none;endFill=0;" edge="1" parent="1" source="qp9JQkSkVBdRz7zZg5ij-19" target="qp9JQkSkVBdRz7zZg5ij-32">
          <mxGeometry relative="1" as="geometry" />
        </mxCell>
        <mxCell id="qp9JQkSkVBdRz7zZg5ij-19" value="SDRAM" style="rounded=0;whiteSpace=wrap;html=1;" vertex="1" parent="1">
          <mxGeometry x="850" y="427.5" width="120" height="60" as="geometry" />
        </mxCell>
        <mxCell id="qp9JQkSkVBdRz7zZg5ij-26" value="UART" style="rounded=0;whiteSpace=wrap;html=1;" vertex="1" parent="1">
          <mxGeometry x="850" y="520" width="120" height="60" as="geometry" />
        </mxCell>
        <mxCell id="qp9JQkSkVBdRz7zZg5ij-28" value="&lt;font color=&quot;#ffffff&quot; style=&quot;font-size: 8px;&quot;&gt;S&lt;/font&gt;" style="whiteSpace=wrap;html=1;aspect=fixed;strokeColor=#FF0000;fillColor=#000000;" vertex="1" parent="1">
          <mxGeometry x="710" y="635" width="10" height="10" as="geometry" />
        </mxCell>
        <mxCell id="qp9JQkSkVBdRz7zZg5ij-29" value="&lt;font color=&quot;#ffffff&quot; style=&quot;font-size: 8px;&quot;&gt;S&lt;/font&gt;" style="whiteSpace=wrap;html=1;aspect=fixed;strokeColor=#FF0000;fillColor=#000000;" vertex="1" parent="1">
          <mxGeometry x="850" y="545" width="10" height="10" as="geometry" />
        </mxCell>
        <mxCell id="qp9JQkSkVBdRz7zZg5ij-30" value="&lt;font color=&quot;#ffffff&quot; style=&quot;font-size: 8px;&quot;&gt;S&lt;/font&gt;" style="whiteSpace=wrap;html=1;aspect=fixed;strokeColor=#FF0000;fillColor=#000000;" vertex="1" parent="1">
          <mxGeometry x="850" y="452.5" width="10" height="10" as="geometry" />
        </mxCell>
        <mxCell id="qp9JQkSkVBdRz7zZg5ij-32" value="SDRAM" style="rounded=0;whiteSpace=wrap;html=1;" vertex="1" parent="1">
          <mxGeometry x="1000" y="427.5" width="80" height="60" as="geometry" />
        </mxCell>
        <mxCell id="qp9JQkSkVBdRz7zZg5ij-35" value="" style="rounded=0;whiteSpace=wrap;html=1;" vertex="1" parent="1">
          <mxGeometry x="770" y="427.5" width="30" height="242.5" as="geometry" />
        </mxCell>
        <mxCell id="qp9JQkSkVBdRz7zZg5ij-45" style="edgeStyle=orthogonalEdgeStyle;rounded=0;orthogonalLoop=1;jettySize=auto;html=1;exitX=0;exitY=0.5;exitDx=0;exitDy=0;entryX=1;entryY=0.5;entryDx=0;entryDy=0;endArrow=none;endFill=0;strokeColor=#FF0000;" edge="1" parent="1" source="qp9JQkSkVBdRz7zZg5ij-36" target="qp9JQkSkVBdRz7zZg5ij-28">
          <mxGeometry relative="1" as="geometry" />
        </mxCell>
        <mxCell id="qp9JQkSkVBdRz7zZg5ij-36" value="&lt;font style=&quot;font-size: 8px;&quot;&gt;M&lt;/font&gt;" style="whiteSpace=wrap;html=1;aspect=fixed;strokeColor=#FF0000;" vertex="1" parent="1">
          <mxGeometry x="770" y="635" width="10" height="10" as="geometry" />
        </mxCell>
        <mxCell id="qp9JQkSkVBdRz7zZg5ij-44" style="edgeStyle=orthogonalEdgeStyle;rounded=0;orthogonalLoop=1;jettySize=auto;html=1;exitX=1;exitY=0.5;exitDx=0;exitDy=0;entryX=0;entryY=0.5;entryDx=0;entryDy=0;endArrow=none;endFill=0;strokeColor=#FF0000;" edge="1" parent="1" source="qp9JQkSkVBdRz7zZg5ij-37" target="qp9JQkSkVBdRz7zZg5ij-29">
          <mxGeometry relative="1" as="geometry" />
        </mxCell>
        <mxCell id="qp9JQkSkVBdRz7zZg5ij-37" value="&lt;font style=&quot;font-size: 8px;&quot;&gt;M&lt;/font&gt;" style="whiteSpace=wrap;html=1;aspect=fixed;strokeColor=#FF0000;" vertex="1" parent="1">
          <mxGeometry x="790" y="545" width="10" height="10" as="geometry" />
        </mxCell>
        <mxCell id="qp9JQkSkVBdRz7zZg5ij-43" style="edgeStyle=orthogonalEdgeStyle;rounded=0;orthogonalLoop=1;jettySize=auto;html=1;exitX=1;exitY=0.5;exitDx=0;exitDy=0;entryX=0;entryY=0.5;entryDx=0;entryDy=0;endArrow=none;endFill=0;strokeColor=#FF0000;" edge="1" parent="1" source="qp9JQkSkVBdRz7zZg5ij-38" target="qp9JQkSkVBdRz7zZg5ij-30">
          <mxGeometry relative="1" as="geometry" />
        </mxCell>
        <mxCell id="qp9JQkSkVBdRz7zZg5ij-38" value="&lt;font style=&quot;font-size: 8px;&quot;&gt;M&lt;/font&gt;" style="whiteSpace=wrap;html=1;aspect=fixed;strokeColor=#FF0000;" vertex="1" parent="1">
          <mxGeometry x="790" y="452.5" width="10" height="10" as="geometry" />
        </mxCell>
        <mxCell id="qp9JQkSkVBdRz7zZg5ij-39" value="&lt;font color=&quot;#ffffff&quot; style=&quot;font-size: 8px;&quot;&gt;S&lt;/font&gt;" style="whiteSpace=wrap;html=1;aspect=fixed;strokeColor=#FF0000;fillColor=#000000;" vertex="1" parent="1">
          <mxGeometry x="770" y="525" width="10" height="10" as="geometry" />
        </mxCell>
        <mxCell id="qp9JQkSkVBdRz7zZg5ij-42" style="edgeStyle=orthogonalEdgeStyle;rounded=0;orthogonalLoop=1;jettySize=auto;html=1;entryX=0;entryY=0.5;entryDx=0;entryDy=0;endArrow=none;endFill=0;strokeColor=#FF0000;" edge="1" parent="1" source="qp9JQkSkVBdRz7zZg5ij-40" target="qp9JQkSkVBdRz7zZg5ij-39">
          <mxGeometry relative="1" as="geometry" />
        </mxCell>
        <mxCell id="qp9JQkSkVBdRz7zZg5ij-40" value="&lt;font style=&quot;font-size: 8px;&quot;&gt;M&lt;/font&gt;" style="whiteSpace=wrap;html=1;aspect=fixed;strokeColor=#FF0000;" vertex="1" parent="1">
          <mxGeometry x="680" y="525" width="10" height="10" as="geometry" />
        </mxCell>
      </root>
    </mxGraphModel>
  </diagram>
</mxfile>
